<svg width="28" height="28" viewBox="0 0 28 28" fill="none" xmlns="http://www.w3.org/2000/svg">
<path d="M23.5808 19.1447C23.2218 19.9133 22.7967 20.6208 22.3043 21.2713C21.633 22.158 21.0834 22.7719 20.6598 23.1127C20.0032 23.6722 19.2997 23.9587 18.5464 23.975C18.0056 23.975 17.3534 23.8324 16.5942 23.5432C15.8325 23.2553 15.1325 23.1127 14.4925 23.1127C13.8212 23.1127 13.1013 23.2553 12.3312 23.5432C11.56 23.8324 10.9387 23.9832 10.4637 23.9981C9.74132 24.0266 9.02125 23.7319 8.30251 23.1127C7.84376 22.742 7.26997 22.1064 6.58259 21.2061C5.84508 20.2446 5.23875 19.1297 4.76374 17.8587C4.25502 16.4857 4 15.1563 4 13.8692C4 12.3948 4.34384 11.1232 5.03254 10.0576C5.57379 9.20166 6.29386 8.52647 7.19508 8.03081C8.09629 7.53514 9.07006 7.28256 10.1187 7.2664C10.6925 7.2664 11.445 7.43085 12.38 7.75405C13.3125 8.07834 13.9112 8.24279 14.1737 8.24279C14.3699 8.24279 15.035 8.0505 16.1625 7.66714C17.2288 7.31162 18.1287 7.16441 18.8659 7.2224C20.8636 7.37178 22.3644 8.10142 23.3625 9.41595C21.5758 10.419 20.6921 11.8238 20.7097 13.626C20.7258 15.0297 21.2754 16.1979 22.3556 17.1254C22.8451 17.5558 23.3918 17.8885 24 18.1248C23.8681 18.4793 23.7289 18.8188 23.5808 19.1447ZM18.9993 2.44013C18.9993 3.54038 18.5654 4.56768 17.7007 5.51854C16.6572 6.64892 15.395 7.30211 14.0262 7.19904C14.0088 7.06705 13.9987 6.92812 13.9987 6.78214C13.9987 5.7259 14.4949 4.59552 15.3762 3.67127C15.8162 3.20331 16.3758 2.81421 17.0544 2.50381C17.7315 2.19805 18.372 2.02896 18.9744 2C18.9919 2.14709 18.9993 2.29418 18.9993 2.44011V2.44013Z" fill="white"/>
</svg>
