<svg width="28" height="28" viewBox="0 0 28 28" fill="none" xmlns="http://www.w3.org/2000/svg">
<path d="M4.5625 3L15.3906 13.75L18.3594 10.7812L5.23437 3.20312C5.01562 3.07617 4.78125 3.00586 4.5625 3ZM3.65625 3.5C3.55859 3.67383 3.5 3.87891 3.5 4.10938V25C3.5 25.168 3.53516 25.3184 3.59375 25.4531L14.6719 14.4531L3.65625 3.5ZM19.2656 11.2969L16.0937 14.4531L19.2656 17.5938L23.1406 15.375C23.6914 15.0566 23.7695 14.6523 23.7656 14.4375C23.7598 14.082 23.5352 13.75 23.1562 13.5469C22.8262 13.3691 20.375 11.9414 19.2656 11.2969ZM15.3906 15.1562L4.46875 25.9844C4.65039 25.9746 4.84766 25.9355 5.03125 25.8281C5.45898 25.5801 14.1094 20.5781 14.1094 20.5781L18.375 18.125L15.3906 15.1562Z" fill="white"/>
</svg>
